<svg id="Capa_1" data-name="Capa 1" xmlns="http://www.w3.org/2000/svg" viewBox="0 0 3635.4 732.5"><defs><style>.cls-1{fill:none;}.cls-2{fill:#e30613;}.cls-3{fill:#e52521;stroke:#e52521;stroke-width:25px;}</style></defs><path class="cls-1" d="M1933.5,410.7q-34.6,0-49.8,23.7-6.6,10.2-10.2,26.1h120.6c-2.6-10.5-6-19.1-10.4-25.9Q1968.1,410.8,1933.5,410.7Z" transform="translate(-62 -42.5)"/><path class="cls-1" d="M1933.5,616.2q34.6,0,50.2-24.3,12-18.9,14.7-56.3H1869.3c1.7,25.1,6.5,44,14.4,56.5Q1898.9,616.3,1933.5,616.2Z" transform="translate(-62 -42.5)"/><polygon class="cls-2" points="1358.7 449.2 1283.6 48 1118.3 48 1039.8 449.2 972.3 48 777.9 48 927.6 669.4 1128.8 669.4 1197.2 296.9 1268 669.4 1465.9 669.4 1613.5 48 1424.1 48 1358.7 449.2"/><path class="cls-2" d="M1883.7,434.4q15.1-23.7,49.8-23.7t50.2,23.9c4.4,6.8,7.8,15.4,10.4,25.9h158.7c-8.1-41.4-26.3-75.8-54.9-102.9q-59.7-56.9-164.4-56.8t-164.6,56.8c-28.7,27.1-47,61.5-55.1,102.9h159.7Q1877.1,444.6,1883.7,434.4Z" transform="translate(-62 -42.5)"/><path class="cls-2" d="M1983.7,591.9q-15.6,24.3-50.2,24.3t-49.8-24.1c-7.9-12.5-12.7-31.4-14.4-56.5H1709.8q6.3,83.3,59.2,133.5,60.1,57,164.5,57t164.3-57q52.8-50.2,59-133.5H1998.4Q1995.7,573,1983.7,591.9Z" transform="translate(-62 -42.5)"/><rect class="cls-2" x="2167.6" y="131.7" width="159.2" height="286.36"/><rect class="cls-2" x="2167.6" y="493.1" width="159.2" height="176.29"/><rect class="cls-2" x="2435.2" y="493.1" width="157" height="176.29"/><path class="cls-2" d="M2530.3,192.4q-33,31.3-33,97.8v24.9H2448v89.4h49.3v56h156.9v-56h67.2V315.1h-67.2c0-1.7-.1-3.9-.3-6.4a52.2,52.2,0,0,1-.4-5.7c0-16.1,3.8-27.3,11.3-33.8s21-9.6,40.2-9.6l8,.3c3.7.3,6.5.4,8.4.4V161h-88.3Q2563.4,161,2530.3,192.4Z" transform="translate(-62 -42.5)"/><rect class="cls-2" x="2714.6" y="493.1" width="159.2" height="176.29"/><rect class="cls-2" x="2714.6" y="131.7" width="159.2" height="286.36"/><rect class="cls-2" x="2970.9" y="493.1" width="159.2" height="176.29"/><rect class="cls-2" x="2970.9" y="118.5" width="159.2" height="113.53"/><rect class="cls-2" x="2970.9" y="272.6" width="159.2" height="145.46"/><polygon class="cls-2" points="3527.3 418 3631 272.6 3459.1 272.6 3406.5 366.8 3355.8 272.6 3183.8 272.6 3283.6 418 3527.3 418"/><polygon class="cls-2" points="3519.8 493.1 3291.4 493.1 3172.5 669.4 3346.3 669.4 3401.4 559.5 3459.8 669.4 3635.4 669.4 3519.8 493.1"/><g id="SVGRepo_iconCarrier" data-name="SVGRepo iconCarrier"><path class="cls-3" d="M432.7,55C234.9,55,74.5,215.3,74.5,413.1A357,357,0,0,0,92.9,526.5c62.6-37.7,118.5-64.2,167.7-81.1-55.7,8.7-103.6,36.8-171.3,6.2,49.2-43.3,136.8-102.7,216.1-111.8,41.5-33.7,106.3-68.6,139.9-58.2,47.5-41.9,106-95.3,168.6-133.7h0c16.7,25.2,26.7,56.1,19.6,90.3-125.4,31.5-96.2,232.3,21,105.2A138.1,138.1,0,0,1,668.7,408a1149.4,1149.4,0,0,1-159,137.2c.7,37.4-8.8,82.5-29.7,132.3-8.8,20.9-11.4,56.7,35.7,84.1,157.8-37.4,275.2-179.2,275.2-348.5C790.9,215.3,630.5,55,432.7,55Z" transform="translate(-62 -42.5)"/></g></svg>